<svg width="459" height="351" viewBox="0 0 459 351" fill="none" xmlns="http://www.w3.org/2000/svg">
<path d="M221.244 81.6286V121.314C221.243 121.68 221.097 122.032 220.837 122.291C220.578 122.55 220.227 122.696 219.86 122.697H218.875V329.43C218.875 335.15 216.602 340.637 212.557 344.682C208.512 348.727 203.026 351 197.305 351H68.1296C65.2973 351 62.4927 350.442 59.8761 349.357C57.2595 348.273 54.8821 346.684 52.8797 344.681C50.8772 342.678 49.2889 340.3 48.2054 337.683C47.122 335.067 46.5646 332.262 46.5651 329.43V129.948H45.8521C45.5934 129.948 45.3451 129.846 45.1617 129.664C44.9782 129.481 44.8745 129.234 44.8733 128.975V106.389C44.8732 106.261 44.8985 106.134 44.9477 106.015C44.9969 105.896 45.069 105.788 45.1599 105.697C45.2508 105.606 45.3587 105.534 45.4775 105.485C45.5962 105.436 45.7235 105.411 45.8521 105.411H46.5651V96.9032H45.846C45.5745 96.9022 45.3145 96.7934 45.123 96.6008C44.9316 96.4083 44.8244 96.1476 44.825 95.876V73.5986C44.8256 73.328 44.9334 73.0687 45.1248 72.8773C45.3161 72.686 45.5754 72.5782 45.846 72.5775H46.5651V60.9645H45.8339C45.7149 60.9646 45.597 60.9413 45.4869 60.8958C45.3769 60.8503 45.2769 60.7836 45.1927 60.6994C45.1086 60.6152 45.0418 60.5152 44.9963 60.4052C44.9508 60.2951 44.9275 60.1772 44.9276 60.0581V47.9013C44.9271 47.6602 45.0222 47.4288 45.1921 47.2577C45.362 47.0867 45.5929 46.99 45.8339 46.989H46.5651V22.3732C46.5653 16.654 48.8374 11.1691 52.8814 7.12507C56.9255 3.081 62.4104 0.80897 68.1296 0.808762H197.305C203.025 0.808736 208.51 3.08049 212.555 7.12444C216.6 11.1684 218.874 16.6534 218.875 22.3732V80.245H219.86C220.227 80.246 220.578 80.392 220.837 80.6513C221.097 80.9106 221.243 81.2619 221.244 81.6286Z" fill="#04858D"/>
<path d="M138.941 11.87H117.95C117.102 11.87 116.415 12.5576 116.415 13.4058V15.2201C116.415 16.0683 117.102 16.7559 117.95 16.7559H138.941C139.789 16.7559 140.477 16.0683 140.477 15.2201V13.4058C140.477 12.5576 139.789 11.87 138.941 11.87Z" fill="#E6E8EC"/>
<path d="M146.886 17.0843C148.417 17.0843 149.657 15.8435 149.657 14.313C149.657 12.7824 148.417 11.5416 146.886 11.5416C145.355 11.5416 144.115 12.7824 144.115 14.313C144.115 15.8435 145.355 17.0843 146.886 17.0843Z" fill="#E6E8EC"/>
<path d="M208.546 26.6389V331.218C208.545 334.846 207.102 338.326 204.536 340.891C201.969 343.456 198.489 344.897 194.861 344.897H71.208C69.4104 344.9 67.6299 344.549 65.9685 343.863C64.3071 343.176 62.7974 342.169 61.5261 340.898C60.2547 339.627 59.2467 338.118 58.5597 336.457C57.8726 334.796 57.5202 333.015 57.5226 331.218V26.6389C57.5225 24.8417 57.8764 23.062 58.5641 21.4016C59.2519 19.7412 60.2599 18.2324 61.5308 16.9616C62.8016 15.6908 64.3103 14.6827 65.9707 13.995C67.6312 13.3073 69.4108 12.9533 71.208 12.9534H89.7151V15.328C89.7152 18.3166 90.9024 21.1828 93.0157 23.2961C95.129 25.4093 97.9952 26.5966 100.984 26.5966H163.871C166.859 26.5966 169.725 25.4093 171.839 23.2961C173.952 21.1828 175.139 18.3166 175.139 15.328V12.9534H194.861C196.658 12.9528 198.438 13.3064 200.099 13.994C201.759 14.6815 203.268 15.6896 204.539 16.9605C205.81 18.2314 206.818 19.7403 207.506 21.401C208.193 23.0616 208.547 24.8415 208.546 26.6389Z" fill="white"/>
<path d="M196.125 213.468H70.4479V229.782H196.125V213.468Z" fill="#E6E6E6"/>
<path d="M196.125 242.47H70.4479V258.784H196.125V242.47Z" fill="#E6E6E6"/>
<path d="M196.125 271.472H70.4479V287.786H196.125V271.472Z" fill="#E6E6E6"/>
<path d="M182.228 67.8518C188.902 67.8518 194.312 62.4415 194.312 55.7675C194.312 49.0935 188.902 43.6832 182.228 43.6832C175.554 43.6832 170.144 49.0935 170.144 55.7675C170.144 62.4415 175.554 67.8518 182.228 67.8518Z" fill="#099099"/>
<path d="M195.873 96.25H70.196V179.632H195.873V96.25Z" fill="#E6E6E6"/>
<path d="M120.241 143.132C123.91 156.696 136.479 165.097 136.479 165.097C136.479 165.097 143.098 151.505 139.429 137.941C135.759 124.376 123.19 115.975 123.19 115.975C123.19 115.975 116.571 129.567 120.241 143.132Z" fill="#04858D"/>
<path d="M125.633 140.216C135.702 150.018 136.932 165.086 136.932 165.086C136.932 165.086 121.836 164.262 111.767 154.46C101.698 144.658 100.468 129.59 100.468 129.59C100.468 129.59 115.563 130.414 125.633 140.216Z" fill="#099099"/>
<path d="M153.623 143.132C149.953 156.696 137.384 165.097 137.384 165.097C137.384 165.097 130.765 151.505 134.434 137.941C138.104 124.376 150.673 115.975 150.673 115.975C150.673 115.975 157.292 129.567 153.623 143.132Z" fill="#04858D"/>
<path d="M148.231 140.216C138.162 150.018 136.932 165.086 136.932 165.086C136.932 165.086 152.027 164.262 162.096 154.46C172.165 144.658 173.395 129.59 173.395 129.59C173.395 129.59 158.3 130.414 148.231 140.216Z" fill="#099099"/>
<path d="M370.391 143.045C370.391 143.045 383.643 119.528 403.62 112.753C412.008 109.962 419.267 104.522 424.308 97.2479C426.672 93.7705 428.712 90.0828 430.402 86.2313" stroke="#04939C" stroke-width="2" stroke-miterlimit="10"/>
<path d="M442.943 81.9233C440.668 84.1321 430.078 86.4193 430.078 86.4193C430.078 86.4193 432.677 75.8844 434.953 73.6716C436.051 72.6416 437.509 72.0848 439.013 72.121C440.517 72.1572 441.946 72.7836 442.994 73.8654C444.041 74.9471 444.623 76.3977 444.613 77.9048C444.604 79.4118 444.004 80.8549 442.943 81.9233Z" fill="#05A7B1"/>
<path d="M436.954 100.968C433.827 101.587 423.713 97.7413 423.713 97.7413C423.713 97.7413 431.61 90.3003 434.718 89.6933C435.464 89.5274 436.236 89.5125 436.988 89.6495C437.74 89.7865 438.457 90.0726 439.097 90.4911C439.738 90.9096 440.288 91.4519 440.716 92.0864C441.144 92.7208 441.441 93.4345 441.59 94.1856C441.739 94.9366 441.737 95.71 441.583 96.4601C441.43 97.2103 441.128 97.9222 440.696 98.554C440.265 99.1859 439.711 99.7249 439.068 100.139C438.426 100.554 437.707 100.836 436.954 100.968Z" fill="#05A7B1"/>
<path d="M415.156 121.6C412.162 120.562 405.355 112.118 405.355 112.118C405.355 112.118 415.911 109.698 418.913 110.736C419.634 110.975 420.301 111.356 420.874 111.856C421.447 112.356 421.916 112.965 422.252 113.648C422.588 114.331 422.786 115.073 422.834 115.833C422.881 116.593 422.777 117.355 422.529 118.074C422.28 118.794 421.891 119.457 421.384 120.024C420.878 120.592 420.264 121.053 419.578 121.381C418.892 121.709 418.148 121.897 417.389 121.935C416.63 121.972 415.871 121.858 415.156 121.6Z" fill="#05A7B1"/>
<path d="M395.125 133.49C391.998 132.973 383.882 125.786 383.882 125.786C383.882 125.786 393.886 121.611 397.009 122.128C398.513 122.376 399.856 123.212 400.744 124.452C401.633 125.692 401.993 127.235 401.745 128.741C401.498 130.247 400.664 131.593 399.426 132.483C398.188 133.373 396.648 133.733 395.145 133.486L395.125 133.49Z" fill="#05A7B1"/>
<path d="M414.882 89.5053C414.878 92.6815 420.629 101.897 420.629 101.897C420.629 101.897 426.372 92.6932 426.372 89.521C426.392 88.7536 426.258 87.99 425.979 87.2752C425.699 86.5604 425.28 85.9089 424.745 85.3591C424.211 84.8093 423.572 84.3723 422.866 84.0739C422.16 83.7755 421.401 83.6218 420.635 83.6218C419.869 83.6218 419.11 83.7755 418.404 84.0739C417.698 84.3723 417.059 84.8093 416.524 85.3591C415.99 85.9089 415.57 86.5604 415.291 87.2752C415.012 87.99 414.878 88.7536 414.898 89.521L414.882 89.5053Z" fill="#05A7B1"/>
<path d="M391.65 103.706C392.596 106.737 400.821 113.806 400.821 113.806C400.821 113.806 403.557 103.302 402.603 100.271C402.109 98.8669 401.089 97.7096 399.76 97.043C398.431 96.3765 396.895 96.2528 395.476 96.6979C394.058 97.1431 392.867 98.1223 392.155 99.4295C391.442 100.737 391.264 102.27 391.657 103.706H391.65Z" fill="#05A7B1"/>
<path d="M370.981 120.613C371.404 123.746 378.315 132.115 378.315 132.115C378.315 132.115 382.776 122.226 382.353 119.081C382.27 118.319 382.035 117.582 381.662 116.912C381.29 116.243 380.787 115.654 380.185 115.182C379.582 114.71 378.891 114.363 378.153 114.162C377.414 113.961 376.643 113.911 375.885 114.013C375.126 114.115 374.396 114.368 373.737 114.757C373.077 115.146 372.502 115.663 372.045 116.278C371.589 116.893 371.259 117.593 371.076 118.338C370.894 119.082 370.861 119.856 370.981 120.613Z" fill="#05A7B1"/>
<path opacity="0.25" d="M442.943 81.9233C440.668 84.1321 430.078 86.4193 430.078 86.4193C430.078 86.4193 432.677 75.8844 434.953 73.6716C436.051 72.6416 437.509 72.0848 439.013 72.121C440.517 72.1572 441.946 72.7836 442.994 73.8654C444.041 74.9471 444.623 76.3977 444.613 77.9048C444.604 79.4118 444.004 80.8549 442.943 81.9233Z" fill="#04939C"/>
<path opacity="0.25" d="M436.954 100.968C433.827 101.587 423.713 97.7413 423.713 97.7413C423.713 97.7413 431.61 90.3003 434.718 89.6933C435.464 89.5274 436.236 89.5125 436.988 89.6495C437.74 89.7865 438.457 90.0726 439.097 90.4911C439.738 90.9096 440.288 91.4519 440.716 92.0864C441.144 92.7208 441.441 93.4345 441.59 94.1856C441.739 94.9366 441.737 95.71 441.583 96.4601C441.43 97.2103 441.128 97.9222 440.696 98.554C440.265 99.1859 439.711 99.7249 439.068 100.139C438.426 100.554 437.707 100.836 436.954 100.968Z" fill="#04939C"/>
<path opacity="0.25" d="M415.156 121.6C412.162 120.562 405.355 112.118 405.355 112.118C405.355 112.118 415.911 109.698 418.913 110.736C419.634 110.975 420.301 111.356 420.874 111.856C421.447 112.356 421.916 112.965 422.252 113.648C422.588 114.331 422.786 115.073 422.834 115.833C422.881 116.593 422.777 117.355 422.529 118.074C422.28 118.794 421.891 119.457 421.384 120.024C420.878 120.592 420.264 121.053 419.578 121.381C418.892 121.709 418.148 121.897 417.389 121.935C416.63 121.972 415.871 121.858 415.156 121.6Z" fill="#04939C"/>
<path opacity="0.25" d="M395.125 133.49C391.998 132.973 383.882 125.786 383.882 125.786C383.882 125.786 393.886 121.611 397.009 122.128C398.513 122.376 399.856 123.212 400.744 124.452C401.633 125.692 401.993 127.235 401.745 128.741C401.498 130.247 400.664 131.593 399.426 132.483C398.188 133.373 396.648 133.733 395.145 133.486L395.125 133.49Z" fill="#04939C"/>
<path opacity="0.25" d="M414.882 89.5053C414.878 92.6815 420.629 101.897 420.629 101.897C420.629 101.897 426.372 92.6932 426.372 89.521C426.392 88.7536 426.258 87.99 425.979 87.2752C425.699 86.5604 425.28 85.9089 424.745 85.3591C424.211 84.8093 423.572 84.3723 422.866 84.0739C422.16 83.7755 421.401 83.6218 420.635 83.6218C419.869 83.6218 419.11 83.7755 418.404 84.0739C417.698 84.3723 417.059 84.8093 416.524 85.3591C415.99 85.9089 415.57 86.5604 415.291 87.2752C415.012 87.99 414.878 88.7536 414.898 89.521L414.882 89.5053Z" fill="#04939C"/>
<path opacity="0.25" d="M391.65 103.706C392.596 106.737 400.821 113.806 400.821 113.806C400.821 113.806 403.557 103.302 402.603 100.271C402.109 98.8669 401.089 97.7096 399.76 97.043C398.431 96.3765 396.895 96.2528 395.476 96.6979C394.058 97.1431 392.867 98.1223 392.155 99.4295C391.442 100.737 391.264 102.27 391.657 103.706H391.65Z" fill="#04939C"/>
<path opacity="0.25" d="M370.981 120.613C371.404 123.746 378.315 132.115 378.315 132.115C378.315 132.115 382.776 122.226 382.353 119.081C382.27 118.319 382.035 117.582 381.662 116.912C381.29 116.243 380.787 115.654 380.185 115.182C379.582 114.71 378.891 114.363 378.153 114.162C377.414 113.961 376.643 113.911 375.885 114.013C375.126 114.115 374.396 114.368 373.737 114.757C373.077 115.146 372.502 115.663 372.045 116.278C371.589 116.893 371.259 117.593 371.076 118.338C370.894 119.082 370.861 119.856 370.981 120.613Z" fill="#04939C"/>
<path d="M371.153 142.579C371.153 142.579 373.757 115.698 389.261 101.403C395.8 95.4457 400.236 87.5254 401.904 78.8294C402.662 74.6955 403.041 70.5005 403.033 66.2972" stroke="#04939C" stroke-width="2" stroke-miterlimit="10"/>
<path d="M412.752 57.227C411.579 60.1721 402.807 66.5635 402.807 66.5635C402.807 66.5635 400.922 55.8759 402.107 52.9308C402.677 51.5167 403.785 50.3874 405.186 49.7914C406.588 49.1954 408.168 49.1815 409.579 49.7527C410.991 50.324 412.118 51.4336 412.713 52.8375C413.308 54.2415 413.322 55.8246 412.752 57.2388V57.227Z" fill="#05A7B1"/>
<path d="M414.984 77.0906C412.392 78.9156 401.575 79.5148 401.575 79.5148C401.575 79.5148 405.789 69.5125 408.381 67.6875C408.996 67.2267 409.697 66.894 410.442 66.7094C411.187 66.5247 411.962 66.4917 412.72 66.6124C413.478 66.733 414.205 67.0049 414.856 67.4118C415.508 67.8188 416.071 68.3526 416.513 68.9816C416.955 69.6106 417.266 70.322 417.429 71.0737C417.591 71.8254 417.601 72.6022 417.459 73.358C417.316 74.1137 417.024 74.8331 416.599 75.4736C416.174 76.1141 415.625 76.6626 414.984 77.0867V77.0906Z" fill="#05A7B1"/>
<path d="M403.389 104.81C400.23 105.077 390.59 100.111 390.59 100.111C390.59 100.111 399.269 93.6096 402.427 93.3433C403.944 93.2156 405.45 93.6967 406.612 94.6809C407.775 95.665 408.5 97.0716 408.628 98.5912C408.755 100.111 408.275 101.619 407.292 102.784C406.31 103.949 404.906 104.675 403.389 104.802V104.81Z" fill="#05A7B1"/>
<path d="M389.898 123.801C386.83 124.584 376.493 121.345 376.493 121.345C376.493 121.345 383.948 113.469 387.017 112.67C388.49 112.288 390.055 112.507 391.367 113.28C392.679 114.053 393.631 115.316 394.013 116.792C394.395 118.268 394.176 119.836 393.404 121.15C392.633 122.464 391.372 123.418 389.898 123.801Z" fill="#05A7B1"/>
<path d="M390.172 75.5711C391.454 78.4731 400.422 84.5786 400.422 84.5786C400.422 84.5786 401.947 73.8322 400.664 70.9302C400.025 69.5725 398.882 68.519 397.478 67.9947C396.074 67.4705 394.521 67.5171 393.151 68.1246C391.781 68.7322 390.702 69.8524 390.145 71.2461C389.589 72.6397 389.598 74.1961 390.172 75.5828V75.5711Z" fill="#05A7B1"/>
<path d="M374.676 97.9802C376.767 100.365 387.142 103.49 387.142 103.49C387.142 103.49 385.391 92.7794 383.299 90.3943C382.806 89.8149 382.202 89.3396 381.523 88.9959C380.845 88.6523 380.105 88.4471 379.346 88.3925C378.588 88.3378 377.826 88.4346 377.105 88.6774C376.385 88.9202 375.719 89.304 375.148 89.8067C374.577 90.3093 374.111 90.9206 373.777 91.6052C373.444 92.2898 373.249 93.034 373.205 93.7945C373.161 94.5549 373.269 95.3166 373.521 96.0352C373.773 96.7538 374.166 97.4149 374.676 97.9802Z" fill="#05A7B1"/>
<path d="M362.6 121.838C364.257 124.541 373.956 129.377 373.956 129.377C373.956 129.377 374.038 118.525 372.393 115.819C371.573 114.57 370.3 113.689 368.844 113.364C367.387 113.039 365.862 113.295 364.59 114.078C363.319 114.861 362.402 116.109 362.034 117.558C361.666 119.007 361.876 120.542 362.619 121.838H362.6Z" fill="#05A7B1"/>
<path d="M326.181 98.9988C347.129 98.9988 364.11 82.0178 364.11 61.0706C364.11 40.1234 347.129 23.1424 326.181 23.1424C305.234 23.1424 288.253 40.1234 288.253 61.0706C288.253 82.0178 305.234 98.9988 326.181 98.9988Z" fill="#FFCCD0"/>
<path d="M297.873 80.0347C297.873 80.0347 305.019 133.904 294.025 139.95C283.031 145.997 359.437 146.547 359.437 146.547C359.437 146.547 342.397 99.8234 350.093 85.5316L297.873 80.0347Z" fill="#FFCCD0"/>
<path d="M415.23 146.819L408.875 175.754L395.439 236.972L395.037 240.324L390.4 279.136L387.316 304.92L385.248 322.24C372.673 328.703 363.559 333.164 363.559 333.164C363.559 333.164 362.775 329.234 361.512 324.205C352.687 326.851 336.357 331.24 322.519 332.117C327.558 337.734 329.874 343.01 326.733 346.904C317.253 358.643 278.116 334.051 264.427 324.881C264.108 327.076 263.987 329.296 264.066 331.514L253.59 323.457L254.627 304.92L256.376 273.556L258.573 234.223C257.88 232.538 257.299 230.81 256.835 229.049C253.626 217.64 249.732 194.858 246.746 175.754C244.342 160.379 242.537 147.386 242.156 144.622C242.104 144.261 242.078 144.075 242.078 144.075L300.067 118.451C304.188 128.009 323.432 130.882 323.432 130.882C339.374 129.783 351.872 121.376 351.872 121.376L415.23 146.819Z" fill="#D0CDE1"/>
<path d="M367.959 322.173C367.959 322.173 365.504 323.014 361.512 324.205C352.687 326.851 336.357 331.24 322.519 332.117C310.604 332.88 300.536 331.044 298.695 323.272C297.906 319.929 299.025 317.18 301.465 314.921C308.748 308.17 327.769 305.751 342.856 304.92C347.116 304.688 351.057 304.58 354.337 304.538C359.908 304.466 363.559 304.58 363.559 304.58L363.647 304.92L367.959 322.173Z" fill="#A0616A"/>
<path d="M294.629 25.194L287.537 22.3549C287.537 22.3549 302.365 6.03019 322.995 7.4498L317.193 1.06179C317.193 1.06179 331.376 -4.61633 344.27 10.2888C351.048 18.1241 358.891 27.3341 363.779 37.7091H371.374L368.204 44.6884L379.298 51.6678L367.911 50.4142C368.59 54.2362 368.694 58.1381 368.22 61.9908C367.732 65.8447 365.765 69.3581 362.735 71.7895C362.735 71.7895 353.941 53.5848 353.941 50.7457V57.8434C353.941 57.8434 346.849 51.4555 346.849 47.1969L342.981 52.1653L341.047 44.3578L317.193 52.1653L321.061 45.7774L306.233 47.9067L312.036 40.0992C312.036 40.0992 295.274 49.3262 294.629 57.1337C293.984 64.9412 289.078 72.3392 289.078 72.3392C289.078 72.3392 275.933 35.8405 294.629 25.194Z" fill="#99607E"/>
<path d="M456.456 279.843C452.593 284.031 443.02 290.339 431.415 297.168C427.098 299.706 422.502 302.321 417.814 304.92C406.627 311.125 394.913 317.273 385.248 322.24C372.673 328.703 363.559 333.164 363.559 333.164C363.559 333.164 362.775 329.234 361.512 324.205C359.82 317.474 357.272 308.773 354.616 304.92C354.523 304.786 354.43 304.662 354.337 304.538C353.563 303.522 352.785 302.929 352.016 302.929L390.4 279.136L406.988 268.852L395.037 240.324L380.049 204.54L389.095 175.754L398.188 146.819H415.23C415.23 146.819 420.872 159.136 428.088 176.311C429.166 178.88 430.28 181.557 431.415 184.321C446.259 220.426 464.765 270.843 456.456 279.843Z" fill="#D0CDE1"/>
<path d="M326.733 346.904C317.253 358.643 278.116 334.051 264.427 324.881C261.446 322.885 259.671 321.621 259.671 321.621L272.194 304.92L276.161 299.633C276.161 299.633 279.709 301.516 284.955 304.58C285.146 304.693 285.336 304.807 285.532 304.92C290.056 307.576 295.735 311.048 301.465 314.921C309.372 320.27 317.366 326.371 322.519 332.117C327.558 337.734 329.874 343.01 326.733 346.904Z" fill="#A0616A"/>
<path d="M284.955 304.58C283.555 304.574 282.157 304.688 280.777 304.92C268.919 306.957 265.422 317.691 264.427 324.881C264.108 327.076 263.987 329.296 264.066 331.514L253.59 323.457L249.774 320.522C240.588 317.319 232.402 311.63 225.305 304.92C219.148 298.996 213.625 292.446 208.826 285.377C204.046 278.41 199.784 271.101 196.076 263.508C195.041 261.39 194.485 259.069 194.447 256.712C194.409 254.354 194.889 252.017 195.854 249.866L208.826 220.957L227.786 178.704C227.925 177.699 228.078 176.715 228.245 175.754C232.005 154.195 242.078 144.622 242.078 144.622H249.774L254.921 175.754L261.317 214.432L256.835 229.049L246.478 262.807L256.376 273.556L284.955 304.58Z" fill="#D0CDE1"/>
<path d="M293.664 214.463L300.243 222.138C302.687 221.672 305.24 221.125 307.868 220.51L305.979 214.463L310.599 219.853C338.45 213.003 372.97 199.686 372.97 199.686C372.97 199.686 335.702 202.418 307.875 196.339C295.563 193.649 282.896 199.752 277.843 211.298C274.907 218.008 275.368 223.822 285.783 223.822C289.302 223.762 292.812 223.432 296.281 222.835L293.664 214.463Z" fill="#04939C"/>
<path d="M443.639 340.612V343.743C443.64 344.602 443.481 345.454 443.169 346.254C443.031 346.611 442.864 346.956 442.669 347.286C442.054 348.318 441.182 349.172 440.138 349.765C439.093 350.358 437.913 350.67 436.712 350.67H206.392C205.191 350.67 204.01 350.358 202.966 349.765C201.921 349.172 201.049 348.318 200.434 347.286C200.24 346.956 200.073 346.611 199.934 346.254C199.622 345.454 199.463 344.602 199.465 343.743V340.612C199.465 339.702 199.644 338.801 199.992 337.961C200.34 337.12 200.85 336.357 201.493 335.713C202.136 335.07 202.9 334.56 203.741 334.212C204.581 333.864 205.482 333.685 206.392 333.685H219.668V332.225C219.668 332.187 219.675 332.15 219.69 332.115C219.704 332.08 219.725 332.048 219.752 332.021C219.779 331.994 219.811 331.973 219.846 331.958C219.881 331.944 219.919 331.936 219.957 331.937H226.883C226.921 331.936 226.959 331.944 226.994 331.958C227.029 331.973 227.061 331.994 227.088 332.021C227.115 332.048 227.136 332.08 227.15 332.115C227.165 332.15 227.172 332.187 227.172 332.225V333.685H231.5V332.225C231.5 332.187 231.507 332.15 231.521 332.115C231.536 332.08 231.557 332.048 231.584 332.021C231.611 331.994 231.643 331.973 231.678 331.958C231.713 331.944 231.751 331.936 231.788 331.937H238.715C238.753 331.936 238.791 331.944 238.826 331.958C238.861 331.973 238.893 331.994 238.92 332.021C238.947 332.048 238.968 332.08 238.982 332.115C238.997 332.15 239.004 332.187 239.004 332.225V333.685H243.337V332.225C243.337 332.187 243.344 332.15 243.359 332.115C243.373 332.08 243.394 332.048 243.421 332.021C243.448 331.994 243.48 331.973 243.515 331.958C243.55 331.944 243.588 331.936 243.626 331.937H250.552C250.59 331.936 250.628 331.944 250.663 331.958C250.698 331.973 250.73 331.994 250.757 332.021C250.784 332.048 250.805 332.08 250.819 332.115C250.834 332.15 250.841 332.187 250.841 332.225V333.685H255.169V332.225C255.169 332.187 255.176 332.15 255.191 332.115C255.205 332.08 255.226 332.048 255.253 332.021C255.28 331.994 255.312 331.973 255.347 331.958C255.382 331.944 255.42 331.936 255.457 331.937H262.384C262.422 331.936 262.46 331.944 262.495 331.958C262.53 331.973 262.562 331.994 262.589 332.021C262.616 332.048 262.637 332.08 262.651 332.115C262.666 332.15 262.673 332.187 262.673 332.225V333.685H267.001V332.225C267.001 332.187 267.008 332.15 267.022 332.115C267.037 332.08 267.058 332.048 267.085 332.021C267.112 331.994 267.144 331.973 267.179 331.958C267.214 331.944 267.251 331.936 267.289 331.937H274.216C274.254 331.936 274.292 331.944 274.327 331.958C274.362 331.973 274.394 331.994 274.421 332.021C274.447 332.048 274.469 332.08 274.483 332.115C274.498 332.15 274.505 332.187 274.505 332.225V333.685H278.838V332.225C278.838 332.187 278.845 332.15 278.86 332.115C278.874 332.08 278.895 332.048 278.922 332.021C278.949 331.994 278.981 331.973 279.016 331.958C279.051 331.944 279.089 331.936 279.126 331.937H286.053C286.091 331.936 286.129 331.944 286.164 331.958C286.199 331.973 286.231 331.994 286.258 332.021C286.285 332.048 286.306 332.08 286.32 332.115C286.335 332.15 286.342 332.187 286.342 332.225V333.685H290.67V332.225C290.67 332.187 290.677 332.15 290.691 332.115C290.706 332.08 290.727 332.048 290.754 332.021C290.781 331.994 290.813 331.973 290.848 331.958C290.883 331.944 290.92 331.936 290.958 331.937H345.218C345.256 331.936 345.294 331.944 345.329 331.958C345.364 331.973 345.396 331.994 345.423 332.021C345.449 332.048 345.471 332.08 345.485 332.115C345.5 332.15 345.507 332.187 345.507 332.225V333.685H349.839V332.225C349.839 332.187 349.847 332.15 349.861 332.115C349.876 332.08 349.897 332.048 349.924 332.021C349.951 331.994 349.983 331.973 350.018 331.958C350.053 331.944 350.09 331.936 350.128 331.937H357.055C357.132 331.937 357.205 331.968 357.259 332.022C357.313 332.076 357.343 332.149 357.344 332.225V333.685H361.671V332.225C361.671 332.187 361.679 332.15 361.693 332.115C361.708 332.08 361.729 332.048 361.756 332.021C361.783 331.994 361.815 331.973 361.85 331.958C361.885 331.944 361.922 331.936 361.96 331.937H368.887C368.925 331.936 368.963 331.944 368.998 331.958C369.033 331.973 369.065 331.994 369.092 332.021C369.118 332.048 369.14 332.08 369.154 332.115C369.169 332.15 369.176 332.187 369.176 332.225V333.685H373.503V332.225C373.503 332.187 373.511 332.15 373.525 332.115C373.54 332.08 373.561 332.048 373.588 332.021C373.615 331.994 373.647 331.973 373.682 331.958C373.717 331.944 373.754 331.936 373.792 331.937H380.719C380.757 331.936 380.795 331.944 380.83 331.958C380.865 331.973 380.897 331.994 380.923 332.021C380.95 332.048 380.972 332.08 380.986 332.115C381.001 332.15 381.008 332.187 381.008 332.225V333.685H385.34V332.225C385.34 332.187 385.348 332.15 385.362 332.115C385.377 332.08 385.398 332.048 385.425 332.021C385.452 331.994 385.484 331.973 385.519 331.958C385.554 331.944 385.591 331.936 385.629 331.937H392.556C392.632 331.937 392.704 331.968 392.758 332.022C392.811 332.077 392.84 332.15 392.84 332.225V333.685H397.172V332.225C397.172 332.187 397.18 332.15 397.194 332.115C397.209 332.08 397.23 332.048 397.257 332.021C397.284 331.994 397.316 331.973 397.351 331.958C397.386 331.944 397.423 331.936 397.461 331.937H404.388C404.426 331.936 404.464 331.944 404.499 331.958C404.534 331.973 404.566 331.994 404.592 332.021C404.619 332.048 404.641 332.08 404.655 332.115C404.67 332.15 404.677 332.187 404.677 332.225V333.685H409.004V332.225C409.004 332.187 409.012 332.15 409.026 332.115C409.041 332.08 409.062 332.048 409.089 332.021C409.116 331.994 409.147 331.973 409.183 331.958C409.218 331.944 409.255 331.936 409.293 331.937H416.22C416.258 331.936 416.296 331.944 416.331 331.958C416.366 331.973 416.398 331.994 416.424 332.021C416.451 332.048 416.473 332.08 416.487 332.115C416.502 332.15 416.509 332.187 416.509 332.225V333.685H436.712C437.622 333.685 438.522 333.864 439.363 334.212C440.203 334.56 440.967 335.07 441.61 335.713C442.254 336.357 442.764 337.12 443.112 337.961C443.46 338.801 443.639 339.702 443.639 340.612Z" fill="#3F3D56"/>
<path d="M425.094 208.764H339.246V206.995H300.32V208.764H214.118C212.578 208.764 211.101 209.376 210.012 210.465C208.923 211.554 208.311 213.031 208.311 214.571V332.123C208.311 333.663 208.923 335.14 210.012 336.229C211.101 337.318 212.578 337.929 214.118 337.93H425.094C426.634 337.929 428.111 337.318 429.2 336.229C430.289 335.14 430.9 333.663 430.9 332.123V214.571C430.9 213.808 430.75 213.053 430.458 212.349C430.167 211.644 429.739 211.004 429.2 210.465C428.66 209.926 428.02 209.498 427.316 209.206C426.611 208.914 425.856 208.764 425.094 208.764Z" fill="#3F3D56"/>
<path d="M319.775 262.699C326.896 262.699 332.669 256.926 332.669 249.804C332.669 242.683 326.896 236.91 319.775 236.91C312.653 236.91 306.88 242.683 306.88 249.804C306.88 256.926 312.653 262.699 319.775 262.699Z" stroke="#D0CDE1" stroke-width="2" stroke-miterlimit="10"/>
<path d="M315.649 267.341C322.77 267.341 328.543 261.568 328.543 254.446C328.543 247.325 322.77 241.552 315.649 241.552C308.527 241.552 302.754 247.325 302.754 254.446C302.754 261.568 308.527 267.341 315.649 267.341Z" fill="#D0CDE1"/>
<g clip-path="url(#clip0)">
<path d="M95.0453 328.43C95.0453 328.43 73.5443 312.146 69.4826 291.433C67.8355 282.733 63.4173 274.803 56.8909 268.832C53.7687 266.023 50.3966 263.506 46.8167 261.312" stroke="#535461" stroke-width="2" stroke-miterlimit="10"/>
<path d="M44.1858 248.263C46.07 250.817 46.9222 261.637 46.9222 261.637C46.9222 261.637 36.8481 257.662 34.9599 255.113C34.0532 253.887 33.6697 252.351 33.8937 250.842C34.1176 249.333 34.9308 247.975 36.1542 247.067C37.3776 246.159 38.9111 245.774 40.4173 245.999C41.9235 246.223 43.2791 247.038 44.1858 248.263Z" fill="#05A7B1"/>
<path d="M62.2544 256.754C62.4498 259.922 57.3013 269.47 57.3013 269.47C57.3013 269.47 50.9957 260.643 50.7963 257.474C50.7205 255.964 51.2418 254.484 52.2473 253.356C53.2528 252.228 54.6615 251.543 56.1682 251.448C57.6749 251.353 59.1581 251.857 60.2966 252.85C61.4351 253.843 62.1371 255.246 62.2505 256.754H62.2544Z" fill="#05A7B1"/>
<path d="M79.7679 281.16C78.3449 283.996 69.0839 289.635 69.0839 289.635C69.0839 289.635 68.0948 278.826 69.5178 275.991C70.2183 274.657 71.4133 273.653 72.8457 273.193C74.2781 272.734 75.8333 272.856 77.1768 273.533C78.5202 274.211 79.5444 275.39 80.029 276.816C80.5136 278.242 80.4198 279.802 79.7679 281.16Z" fill="#05A7B1"/>
<path d="M88.8725 302.606C87.946 305.641 79.7718 312.765 79.7718 312.765C79.7718 312.765 76.9688 302.281 77.8953 299.242C78.3406 297.784 79.346 296.562 80.6902 295.847C82.0343 295.131 83.6073 294.979 85.063 295.426C86.5186 295.872 87.7378 296.879 88.4522 298.225C89.1667 299.572 89.3178 301.148 88.8725 302.606Z" fill="#05A7B1"/>
<path d="M47.9817 277.146C51.1091 277.569 60.9956 273.097 60.9956 273.097C60.9956 273.097 52.6532 266.173 49.5102 265.75C48.0016 265.547 46.4744 265.952 45.2643 266.877C44.0543 267.802 43.2606 269.171 43.0579 270.682C42.8552 272.193 43.2601 273.724 44.1835 274.936C45.1069 276.148 46.4731 276.943 47.9817 277.146Z" fill="#05A7B1"/>
<path d="M58.9471 302.097C62.0746 301.56 70.155 294.335 70.155 294.335C70.155 294.335 60.1238 290.231 57.0003 290.767C56.2525 290.89 55.5363 291.16 54.8932 291.561C54.2501 291.963 53.6927 292.488 53.2533 293.107C52.8138 293.725 52.501 294.425 52.3329 295.165C52.1647 295.905 52.1446 296.672 52.2737 297.42C52.4027 298.168 52.6784 298.883 53.0848 299.524C53.4912 300.164 54.0203 300.718 54.6414 301.153C55.2626 301.588 55.9636 301.895 56.704 302.057C57.4443 302.219 58.2094 302.233 58.955 302.097H58.9471Z" fill="#05A7B1"/>
<path d="M72.9228 324.886C76.0932 324.886 85.2799 319.133 85.2799 319.133C85.2799 319.133 76.0893 313.388 72.9188 313.388C71.3968 313.388 69.9371 313.993 68.8609 315.072C67.7847 316.15 67.1801 317.612 67.1801 319.137C67.1801 320.662 67.7847 322.124 68.8609 323.202C69.9371 324.28 71.3968 324.886 72.9188 324.886H72.9228Z" fill="#05A7B1"/>
<path d="M284.742 81.8471C285.391 79.4621 286.173 77.0653 286.72 74.649C286.064 77.0653 285.278 79.4699 284.742 81.8471Z" fill="url(#paint0_linear)"/>
<path d="M281.834 104.82C281.779 104.726 281.74 104.632 281.697 104.546C281.697 104.507 281.658 104.476 281.642 104.436C281.557 104.477 281.47 104.512 281.38 104.542C281.208 104.609 281.032 104.671 280.853 104.722C280.673 104.773 280.598 104.801 280.462 104.832C280.348 104.871 280.232 104.901 280.114 104.922L280.145 104.993C280.29 104.961 280.43 104.934 280.575 104.895L280.614 105.38C280.778 105.38 280.931 105.357 281.079 105.357C281.15 105.353 281.22 105.353 281.29 105.357C281.595 105.357 281.861 105.357 282.072 105.357C281.99 105.181 281.904 104.997 281.834 104.82ZM361.192 231.368C359.354 228.889 355.688 202.282 355.688 202.282C355.688 202.282 348.475 183.362 350.441 175.811C352.408 168.261 345.07 148.942 345.07 148.942C345.07 148.942 340.223 146.831 339.961 143.698C339.961 143.698 320.168 137.431 319.242 132.732C318.491 128.878 306.216 126.113 301.806 125.24C300.461 119.804 299.109 114.732 298.112 111.964C297.842 111.102 297.588 110.358 297.354 109.771C295.669 105.463 290.462 105.071 286.685 105.416C286.522 104.681 286.218 103.986 285.79 103.367C285.728 103.155 285.604 102.965 285.434 102.823C285.353 102.754 285.267 102.691 285.176 102.635C285.108 102.508 285.018 102.394 284.91 102.298C284.803 102.201 284.685 102.117 284.559 102.048C284.468 101.998 284.374 101.955 284.277 101.918C284.051 101.832 283.816 101.768 283.577 101.726C283.299 101.669 283.017 101.632 282.733 101.617C283.423 101.314 284.038 100.864 284.535 100.297C284.873 99.8989 285.125 99.4348 285.274 98.934C285.398 98.5176 285.453 98.0838 285.438 97.6495C285.337 97.8285 285.219 97.9976 285.086 98.1547C285.25 96.4198 284.336 94.6574 283.812 92.9303C283.177 90.6819 283.06 88.3186 283.468 86.018C283.992 82.5482 285.29 79.0392 286.169 75.5066C286.171 75.4871 286.171 75.4674 286.169 75.4479C286.63 73.6936 286.916 71.8975 287.021 70.0864C287.174 66.4325 286.24 62.7864 284.738 59.4576C283.405 56.5086 281.439 53.6066 278.429 52.4082C276.193 51.5035 273.687 51.6484 271.279 51.4996C265.876 51.1628 260.724 49.2595 255.587 47.5285C250.45 45.7974 245.165 44.2231 239.758 44.5246C234.352 44.8262 228.789 47.4384 226.322 52.232C225.54 53.728 225.091 55.3924 224.157 56.7984C222.405 59.4497 219.27 60.7774 216.655 62.6063C214.039 64.4352 211.737 67.0317 210.791 70.1295C210.274 71.7985 210.201 73.5737 210.58 75.2795C210.665 75.6647 210.774 76.0441 210.908 76.4152C211.279 77.45 211.858 78.3977 212.609 79.1997C213.175 79.7925 213.826 80.298 214.54 80.6997C215.437 81.1977 216.396 81.5718 217.393 81.8119C217.358 81.9294 217.323 82.0547 217.284 82.1761C217.221 82.3759 217.167 82.5678 217.108 82.7832C216.979 83.2649 216.858 83.7544 216.756 84.2479C216.752 84.283 216.752 84.3185 216.756 84.3536C216.276 86.5812 216.035 88.8538 216.037 91.1327C216.036 92.2105 216.091 93.2877 216.201 94.3598C217.765 110.252 230.861 122.788 247.041 123.603C247.596 123.63 248.155 123.646 248.722 123.646C248.98 123.646 249.234 123.646 249.504 123.646C249.758 123.983 250.008 124.327 250.247 124.664C250.485 125.001 250.704 125.346 250.912 125.683L250.345 125.095L249.778 124.574C249.624 124.785 249.453 124.983 249.266 125.166C248.896 125.035 248.519 124.928 248.136 124.844C246.514 124.484 244.043 124.351 240.79 125.334C237.8 126.231 234.145 128.075 229.868 131.58L209.028 144.113L197.753 150.982L193.692 160.929C193.692 160.929 190.639 172.749 187.241 186.291C187.108 186.331 186.979 186.37 186.85 186.417C186.575 186.385 186.299 186.37 186.022 186.37C184.051 186.365 182.155 187.126 180.732 188.492C179.309 189.859 178.47 191.724 178.391 193.697C171.636 201.921 171.252 210.146 172.84 213.921C172.983 214.275 173.164 214.612 173.379 214.928C174.419 216.431 176.362 220.309 178.332 224.44C178.281 224.781 178.25 225.067 178.234 225.282C178.231 225.353 178.231 225.423 178.234 225.494C178.234 225.494 179.407 243.239 175.498 248.326C174.642 249.434 174.771 250.891 175.498 252.505C178.117 258.309 188.473 266.059 188.473 266.059C188.473 266.059 200.893 265.992 207.812 265.237C207.792 265.934 207.777 266.627 207.761 267.304C207.605 274.15 207.605 279.888 207.605 279.888L207.347 287.066C207.347 287.066 205.001 302.195 203.828 306.366C203.09 308.982 203.942 333.204 204.684 351.012H327.052C328.491 340.477 326.462 308.469 326.462 308.469C326.462 308.469 324.535 300.194 324.464 292.98C324.46 292.972 324.458 292.963 324.458 292.954C324.458 292.946 324.46 292.937 324.464 292.929C324.464 292.298 324.464 291.683 324.488 291.08L325.375 291.049L326.97 290.994H327.115C327.115 290.994 327.154 290.845 327.244 290.603C327.455 289.998 327.743 289.423 328.1 288.891C328.78 287.885 329.843 286.898 331.442 286.831C332.326 286.796 333.694 286.079 335.238 285.022C335.249 285.024 335.259 285.024 335.269 285.022C339.425 282.206 344.918 277.009 346.251 276.155C348.084 274.98 356.864 267.148 356.864 267.148C356.864 267.148 358.174 265.487 359.569 263.486L359.62 263.415C361.356 260.909 363.201 257.913 362.748 256.969C361.966 255.277 363.272 251.232 363.272 251.232C367.349 243.756 363.029 233.847 361.192 231.368ZM285.598 110.91C285.636 111.027 285.659 111.148 285.669 111.27C285.571 111.141 285.473 111.004 285.376 110.879L285.282 110.754L285.215 110.66L285.364 110.456C285.364 110.456 285.364 110.456 285.364 110.483C285.467 110.61 285.547 110.755 285.598 110.91ZM284.285 107.44C283.859 107.526 283.523 107.605 283.304 107.664C283.026 107.17 282.76 106.677 282.522 106.175C283.148 106.54 283.739 106.963 284.285 107.44ZM283.55 108.059C283.549 108.051 283.549 108.043 283.55 108.036L283.581 108.059C283.741 108.165 283.898 108.267 284.043 108.372C284.172 108.466 284.289 108.556 284.406 108.65C284.328 108.788 284.242 108.928 284.156 109.042C284.019 108.827 283.89 108.619 283.765 108.404C283.687 108.318 283.616 108.2 283.55 108.059ZM281.204 103.226C281.96 103.152 282.72 103.152 283.476 103.226C283.581 103.226 283.675 103.246 283.769 103.262C283.981 103.294 284.189 103.348 284.39 103.422C284.852 104.07 285.137 104.827 285.215 105.619L285.004 105.651L284.797 105.69C284.406 105.756 284.015 105.823 283.71 105.886L283.319 105.968C282.799 106.081 282.498 106.167 282.487 106.171C282.436 106.066 282.385 105.968 282.33 105.866C282.244 105.698 282.154 105.525 282.076 105.357C281.998 105.188 281.896 104.997 281.814 104.82C281.76 104.726 281.72 104.632 281.677 104.546C281.677 104.507 281.638 104.476 281.623 104.436C281.6 104.395 281.58 104.352 281.564 104.307C281.326 103.822 281.107 103.336 280.896 102.858C280.872 102.811 280.853 102.76 280.833 102.713L281.13 102.694V102.796L281.204 103.226ZM187.933 346.171C187.902 340.34 187.48 334.031 186.307 328.109C185.807 325.591 185.291 323.073 184.767 320.598C184.634 319.979 184.505 319.368 184.376 318.757L183.172 318.918H183.062C179.779 303.405 176.346 289.737 176.346 289.737C176.346 289.737 169.528 263.658 170.318 261.579C170.42 261.309 170.291 260.58 170.001 259.511C168.352 253.582 161.464 237.243 159.056 231.658C159.056 231.635 159.036 231.607 159.028 231.588C158.637 230.652 158.356 230.021 158.27 229.837L158.837 221.503L158.868 221.002L158.942 219.937L158.911 219.909L158.942 219.416C158.942 219.416 152.992 214.528 142.914 210.999C142.523 210.859 142.109 210.721 141.698 210.588C142.203 207.216 142.871 203.41 143.743 199.701C143.825 199.329 143.915 198.969 144.009 198.604C144.091 198.24 144.185 197.888 144.279 197.531C144.427 196.952 144.587 196.38 144.752 195.816C145.295 195.644 145.831 195.452 146.358 195.248L146.562 195.17C153.063 192.635 158.428 187.827 161.662 181.634C164.896 175.442 165.781 168.285 164.153 161.489C163.225 157.635 161.511 154.015 159.118 150.857C158.938 150.614 158.747 150.371 158.555 150.132C158.364 149.893 158.133 149.627 157.918 149.384C159.048 146.811 160.381 144.363 160.49 141.861C160.51 141.544 160.51 141.226 160.49 140.909V140.87C160.346 139.26 159.634 137.631 157.977 135.92C155.557 133.409 152.113 132.137 148.669 131.526C145.225 130.915 141.714 130.899 138.25 130.488C132.508 129.799 126.914 128.024 121.171 127.48C114.097 126.824 106.976 128.039 100.518 131.005C96.2454 132.963 91.9179 136.386 91.6599 141.081C91.4488 144.963 94.1461 148.683 93.4659 152.517C92.7896 156.285 88.9586 159.249 89.2948 163.06C89.4238 164.548 90.1861 165.88 91.1399 167.066C91.4683 167.458 91.8162 167.85 92.1759 168.241C93.5676 169.718 95.1 171.135 95.878 172.996C95.9092 173.074 95.9405 173.152 95.9679 173.231C96.6285 175.067 96.3314 177.39 94.6973 178.443C94.7064 178.45 94.7132 178.46 94.7169 178.471C94.7404 178.502 94.7638 178.525 94.7834 178.557C94.7858 178.55 94.7858 178.543 94.7834 178.537C95.3627 179.225 96.1438 179.713 97.0156 179.931L97.3478 180.033C97.0781 180.327 96.824 180.632 96.566 180.954L96.3979 181.177C95.9671 181.757 95.5753 182.365 95.2251 182.998C95.0257 183.35 94.8342 183.703 94.6739 184.055C94.138 185.13 93.7501 186.272 93.5207 187.451C93.1024 190.043 93.6927 192.746 93.0594 195.283C92.2775 198.416 89.803 200.821 88.4073 203.731C85.7647 209.214 87.2619 215.648 87.7936 221.703C88.5168 229.927 87.344 238.187 86.1752 246.356C85.5549 250.701 84.9346 255.049 84.3143 259.401C82.7506 270.325 81.1869 281.249 79.6232 292.173C79.0525 296.175 78.3762 300.397 75.714 303.487H75.7413C75.7413 303.487 75.7413 303.511 75.714 303.519C76.5131 303.869 77.3631 304.088 78.2315 304.169C81.7069 304.517 85.3894 302.833 88.5168 300.993C90.9935 299.559 93.3391 297.909 95.5261 296.062C95.2056 297.237 94.8615 298.517 94.4941 299.896C94.4953 299.909 94.4953 299.922 94.4941 299.935C90.0805 316.775 82.9813 347.648 82.9813 347.648C82.9813 347.648 82.3363 348.991 81.4997 350.992H191.741C190.451 349.426 189.251 347.926 188.312 346.716L187.933 346.171ZM106.308 190.458C106.335 190.411 106.355 190.368 106.382 190.325C106.382 190.451 106.382 190.572 106.382 190.689C106.382 190.807 106.382 190.913 106.382 191.022C106.382 191.132 106.382 191.12 106.382 191.175C106.382 191.23 106.382 191.175 106.382 191.175C106.382 191.336 106.347 191.496 106.32 191.657C106.32 191.657 106.32 191.676 106.32 191.692L106.711 191.837L107.164 192.025C109.843 193.085 112.556 194.044 115.303 194.903C115.585 194.993 115.87 195.08 116.155 195.162L116.214 195.648C116.284 196.145 116.351 196.65 116.413 197.155C116.413 197.155 116.413 197.179 116.413 197.194C116.589 198.593 116.761 199.987 116.914 201.35C116.914 201.35 109.736 198.608 109.826 202.771C109.822 202.846 109.822 202.92 109.826 202.995C109.818 203.094 109.818 203.193 109.826 203.292C109.893 206.535 110.905 208.458 111.108 209.445C111.096 209.486 111.075 209.523 111.046 209.554C110.872 209.932 110.813 210.353 110.874 210.765C110.867 211.465 110.922 212.165 111.038 212.856C110.827 212.985 110.62 213.114 110.413 213.247C110.256 213.345 110.108 213.455 109.955 213.565C108.996 210.232 107.742 206.992 106.206 203.884C105.131 201.667 103.923 199.356 103.935 196.924C103.935 196.768 103.935 196.607 103.954 196.446C103.998 195.742 104.132 195.045 104.353 194.375C104.443 194.12 104.541 193.87 104.65 193.623C104.906 193.037 105.192 192.464 105.506 191.907C105.71 191.539 105.925 191.175 106.132 190.807C106.198 190.697 106.261 190.584 106.324 190.474L106.308 190.458ZM281.834 104.82C281.779 104.726 281.74 104.632 281.697 104.546C281.697 104.507 281.658 104.476 281.642 104.436C281.557 104.477 281.47 104.512 281.38 104.542C281.208 104.609 281.032 104.671 280.853 104.722C280.673 104.773 280.598 104.801 280.462 104.832L280.114 104.922L280.145 104.993C280.29 104.961 280.43 104.934 280.575 104.895L280.614 105.38C280.778 105.38 280.931 105.357 281.079 105.357H281.29C281.595 105.357 281.861 105.357 282.072 105.357C281.99 105.181 281.904 104.997 281.834 104.82Z" fill="url(#paint1_linear)"/>
<path d="M196.416 162.343L194.071 163.381C194.071 163.381 178.782 222.885 178.782 227.695C178.782 232.504 211.201 259.264 211.201 259.264L216.26 225.059C216.26 225.059 208.996 146.619 196.416 162.343Z" fill="#E8F5FF"/>
<path d="M267.53 143.416L253.984 136.335C253.225 133.095 251.879 130.022 250.012 127.269C248.03 124.402 245.396 121.586 242.112 120.117C233.812 116.389 277.217 96.8192 277.217 96.8192C277.901 99.1701 278.706 101.484 279.629 103.751C281.865 109.281 285.575 116.432 290.356 118.469C298.483 121.935 267.53 143.416 267.53 143.416Z" fill="#FFC1C7"/>
<path opacity="0.1" d="M279.629 103.751C277.774 110.285 273.918 116.071 268.603 120.291C263.289 124.511 256.786 126.951 250.012 127.269C248.03 124.402 245.396 121.586 242.112 120.117C233.812 116.389 277.217 96.8192 277.217 96.8192C277.901 99.1701 278.706 101.484 279.629 103.751Z" fill="#04939C"/>
<path d="M280.849 93.8702C280.85 100.279 278.955 106.544 275.402 111.873C271.849 117.202 266.798 121.356 260.888 123.81C254.979 126.263 248.475 126.905 242.201 125.656C235.927 124.406 230.164 121.321 225.64 116.79C221.116 112.258 218.036 106.485 216.787 100.199C215.539 93.914 216.18 87.399 218.628 81.4783C221.076 75.5577 225.222 70.4973 230.541 66.9373C235.861 63.3773 242.114 61.4776 248.511 61.4784C252.763 61.4587 256.977 62.283 260.909 63.9039C264.841 65.5247 268.413 67.9098 271.42 70.9216C274.426 73.9333 276.808 77.512 278.426 81.4508C280.044 85.3897 280.868 89.6108 280.849 93.8702Z" fill="#FFC1C7"/>
<path d="M285.516 139.256L276.697 159.872L268.918 173.556H244.016L236.752 154.847L239.696 135.446H258.714L270.993 134.753L275.141 133.366L277.815 134.886L285.516 139.256Z" fill="#05A7B1"/>
<path opacity="0.1" d="M282.479 111.776C282.479 111.776 287.979 112.951 283.053 116.996C278.128 121.042 261.134 133.907 261.134 133.907C261.134 133.907 267.104 139.233 265.868 145.472L285.645 134.428L289.164 116.757C289.164 116.757 289.558 111.447 282.479 111.776Z" fill="black"/>
<path opacity="0.1" d="M265.024 133.907L252.444 135.986C252.444 135.986 255.04 145.601 253.742 148.331C253.703 148.415 253.67 148.503 253.644 148.593L248.511 162.492L252.358 173.407L265.673 155.215L261.134 148.331C261.134 148.331 265.931 141.963 268.785 139.754C271.638 137.545 265.024 133.907 265.024 133.907Z" fill="#04939C"/>
<path d="M265.024 133.37L252.444 135.446C252.444 135.446 255.04 145.06 253.742 147.79C253.703 147.875 253.67 147.963 253.644 148.052L248.511 161.952L252.358 172.866L265.673 154.663L261.134 147.778C261.134 147.778 265.931 141.41 268.785 139.202C271.638 136.993 265.024 133.37 265.024 133.37Z" fill="#DCE6F2"/>
<path opacity="0.1" d="M250.876 128.494C250.876 128.494 252.076 130.742 257.374 134.796C257.374 134.796 248.554 139.495 251.928 146.102L238.437 142.577L236.361 136.08L250.876 128.494Z" fill="#04939C"/>
<path d="M250.356 127.977C250.356 127.977 251.557 130.225 256.854 134.279C256.854 134.279 248.034 138.955 251.408 145.581L237.921 142.057L235.845 135.563L250.356 127.977Z" fill="#05A7B1"/>
<path opacity="0.1" d="M285.516 139.256L276.697 159.872L268.933 173.556H244.016L236.752 154.847L239.692 135.446H244.981C244.895 139.973 246.545 145.291 246.439 147.269C246.259 150.52 251.279 168.057 251.279 168.057C251.279 168.057 261.783 151.037 265.931 149.521C268.538 148.569 274.062 140.651 277.811 134.886L285.516 139.256Z" fill="#04939C"/>
<path d="M320.258 247.742L319.363 248.87C319.363 248.87 325.848 281.481 324.054 288.887C323.749 290.222 323.575 291.584 323.534 292.952V293.011C323.217 300.546 325.488 310.325 325.488 310.325C325.488 310.325 327.302 339.149 326.27 351.004H204.841C204.129 333.474 203.363 310.764 204.059 308.246C205.232 304.09 207.577 289.016 207.577 289.016L207.835 281.873C207.835 281.873 207.835 274.969 208.046 267.277C208.136 263.819 208.269 260.188 208.461 256.969C208.707 252.92 209.051 249.509 209.524 247.832C209.816 246.562 209.983 245.266 210.025 243.963C210.025 243.842 210.025 243.716 210.048 243.591C210.048 243.199 210.087 242.776 210.103 242.342C210.103 242.22 210.103 242.099 210.103 241.95C210.177 239.428 210.15 236.436 210.068 233.334C210.068 233.166 210.068 232.994 210.068 232.821C210.001 230.495 209.903 228.122 209.794 225.866C209.454 218.816 209.012 212.856 209.012 212.856L194.098 163.354L198.117 153.437L209.27 146.592L229.891 134.118C239.95 125.835 246.572 126.83 249.098 127.739C249.343 127.822 249.583 127.92 249.817 128.032C249.895 128.071 249.958 128.103 250.016 128.138C250.097 128.176 250.174 128.221 250.247 128.271C249.555 128.604 248.955 129.1 248.496 129.716C247.978 130.417 247.61 131.217 247.413 132.066C247.281 132.592 247.188 133.128 247.135 133.668C247.084 134.236 247.065 134.823 247.065 135.415C247.093 136.711 247.204 138.005 247.397 139.288C247.397 139.311 247.397 139.343 247.397 139.374C247.526 140.29 247.686 141.187 247.843 142.029C247.841 142.043 247.841 142.058 247.843 142.072C248.023 143.055 248.202 143.964 248.324 144.747C248.347 144.888 248.367 145.017 248.386 145.139C248.472 145.656 248.513 146.181 248.507 146.705C248.551 147.972 248.722 149.232 249.015 150.465C249.117 150.982 249.234 151.534 249.363 152.11C249.539 152.893 249.731 153.747 249.938 154.616C250.051 155.094 250.173 155.587 250.298 156.077C250.345 156.273 250.395 156.469 250.442 156.668L250.521 156.978C251.353 160.295 252.256 163.596 252.811 165.594C253.14 166.769 253.347 167.493 253.347 167.493C253.347 167.493 259.234 157.957 263.933 152.529C264.004 152.451 264.066 152.376 264.133 152.306C264.598 151.769 265.055 151.28 265.493 150.849C266.451 149.893 267.311 149.212 268.003 148.961C268.15 148.907 268.293 148.84 268.429 148.761C270.352 147.669 273.456 143.701 276.361 139.546C276.646 139.155 276.924 138.728 277.205 138.324C277.85 137.392 278.476 136.456 279.066 135.559C279.519 134.874 279.953 134.208 280.364 133.574C282.319 130.527 283.695 128.256 283.695 128.256L286.408 128.134L286.881 128.111H287.197L299.515 127.539C299.515 127.539 300.047 127.629 300.923 127.805C300.97 127.805 301.017 127.805 301.067 127.836C305.438 128.706 317.58 131.459 318.323 135.277C319.23 139.954 338.815 146.192 338.815 146.192C339.073 149.325 343.87 151.389 343.87 151.389C343.87 151.389 351.133 170.618 349.19 178.153C347.271 185.594 354.186 204.001 354.37 204.518L353.045 206.194L320.258 247.742Z" fill="#E8F5FF"/>
<path d="M250.251 144.05C250.087 143.936 246.193 141.144 244.242 137.784C242.217 134.294 249.512 127.468 249.59 127.171L250.372 127.974C249.876 129.822 244.195 134.573 245.607 137.001C247.385 140.067 251.13 142.75 251.17 142.777L250.251 144.05Z" fill="#353146"/>
<path d="M266.103 128.115L265.493 127.273C265.618 127.182 277.897 118.285 279.832 115.406L279.895 115.32L279.985 115.261C280.024 115.234 283.937 112.696 284.574 109.5C284.692 108.904 284.683 108.289 284.548 107.696C284.413 107.103 284.156 106.545 283.792 106.058L283.702 105.925V105.831C283.624 105.729 283.05 105.153 280.141 105.404L280.051 104.366C282.236 104.178 283.679 104.393 284.351 105.008C284.519 105.153 284.642 105.341 284.707 105.553C285.13 106.148 285.426 106.824 285.578 107.539C285.73 108.253 285.734 108.991 285.591 109.708C285.157 111.874 283.511 113.702 282.209 114.85C281.134 115.802 280.098 116.808 279.062 117.799C275.133 121.57 266.533 127.805 266.103 128.115Z" fill="#E8F5FF"/>
<path d="M187.613 202.92L186.577 202.939L186.692 209.247L187.728 209.228L187.613 202.92Z" fill="#E8F5FF"/>
<path d="M186.491 203.876C190.668 203.876 194.055 200.483 194.055 196.298C194.055 192.112 190.668 188.72 186.491 188.72C182.313 188.72 178.926 192.112 178.926 196.298C178.926 200.483 182.313 203.876 186.491 203.876Z" fill="#05A7B1"/>
<path d="M186.491 202.591C189.96 202.591 192.773 199.773 192.773 196.298C192.773 192.822 189.96 190.004 186.491 190.004C183.021 190.004 180.209 192.822 180.209 196.298C180.209 199.773 183.021 202.591 186.491 202.591Z" fill="#E8F5FF"/>
<path d="M220.564 244.543C220.042 244.543 219.52 244.516 219 244.46C211.682 244.892 204.472 242.529 198.824 237.846C191.397 231.58 187.183 221.452 186.315 207.733L187.879 207.635C188.715 220.912 192.734 230.675 199.833 236.651C208.504 243.955 218.82 242.917 218.922 242.917H219.008H219.094C220.797 243.137 222.528 242.97 224.158 242.428C225.788 241.885 227.274 240.982 228.508 239.784C235.618 233.154 237.749 217.716 237.425 209.543C237.034 200.335 240.353 173.986 244.305 168.762C247.765 164.184 249.911 143.549 249.934 143.341L249.993 142.754L250.571 142.652C250.607 142.652 253.984 142.01 254.406 139.48C254.954 136.182 264.766 127.562 265.88 126.587L266.9 127.762C262.846 131.287 256.283 137.663 255.954 139.734C255.478 142.601 252.675 143.698 251.439 144.042C251.048 147.473 248.988 165.155 245.575 169.694C242.08 174.319 238.597 199.72 238.988 209.468C239.324 217.92 237.069 233.929 229.575 240.916C227.162 243.261 223.926 244.564 220.564 244.543Z" fill="#353146"/>
<g opacity="0.1">
<path opacity="0.1" d="M284.179 84.6121C284.82 82.2388 285.594 79.8498 286.134 77.4452C285.489 79.8616 284.711 82.2388 284.179 84.6121Z" fill="#04939C"/>
<path opacity="0.1" d="M277.639 103.262C276.857 101.542 277.276 99.5528 277.291 97.6652C277.307 95.7775 276.611 93.5687 274.797 93.04C271.169 92.0257 268.667 98.8048 265.102 97.579C262.366 96.643 263.089 92.4878 261.51 90.0871C260.262 88.1837 257.764 87.6511 255.825 86.4606C251.689 83.9189 251.815 79.8537 249.899 76.0079C247.886 71.9741 243.644 73.1647 239.954 75.5458C237.151 77.3551 234.739 79.7793 231.744 81.2244C229.153 82.4738 226.24 82.928 223.367 82.9946C219.868 83.0769 216.06 82.4542 213.656 79.9086C211.803 77.9504 211.135 75.0797 211.518 72.3892C211.451 72.5733 211.393 72.7574 211.334 72.9414C210.396 76.0236 210.943 79.6462 213.136 81.9881C215.54 84.5337 219.348 85.1525 222.847 85.0742C225.724 85.0076 228.633 84.5533 231.228 83.304C234.231 81.855 236.643 79.4347 239.438 77.6254C243.128 75.2442 247.374 74.0537 249.383 78.0875C251.299 81.9333 251.177 85.9984 255.309 88.5401C257.264 89.715 259.746 90.2633 260.997 92.1666C262.561 94.5752 261.869 98.7226 264.59 99.6586C268.151 100.88 270.653 94.1052 274.281 95.1195C276.095 95.6287 276.795 97.861 276.775 99.7447C276.756 101.628 276.349 103.622 277.123 105.341C280.129 105.204 283.847 104.558 284.719 101.66C284.839 101.244 284.894 100.812 284.883 100.379C283.612 102.576 280.344 103.14 277.639 103.262Z" fill="#04939C"/>
</g>
<path opacity="0.1" d="M348.291 199.76L352.83 204.569C352.83 204.569 356.462 231.071 358.275 233.55C360.089 236.029 364.374 245.89 360.351 253.296C360.351 253.296 359.053 257.326 359.831 259.014C360.609 260.701 353.999 269.149 353.999 269.149C353.999 269.149 345.308 276.942 343.491 278.113C341.673 279.284 332.08 288.637 328.839 288.766C325.598 288.895 324.539 292.925 324.539 292.925L306.251 293.575C306.251 293.575 296.149 293.046 293.952 294.476C293.952 294.476 295.125 279.014 283.839 268.879L298.233 263.682C298.233 263.682 303.683 261.332 305.368 258.876C306.427 257.371 307.931 256.236 309.668 255.63C309.668 255.63 313.686 252.771 313.815 251.212C313.944 249.654 318.729 247.742 318.729 247.742L316.02 224.577L317.447 186.119C317.447 186.119 321.986 153.896 331.583 155.717C341.18 157.538 348.291 199.76 348.291 199.76Z" fill="#04939C"/>
<path d="M349.855 199.76L354.394 204.569C354.394 204.569 358.025 231.071 359.839 233.55C361.653 236.029 365.938 245.89 361.915 253.296C361.915 253.296 360.621 257.326 361.399 259.014C362.177 260.701 355.562 269.149 355.562 269.149C355.562 269.149 346.872 276.942 345.054 278.113C343.237 279.284 333.643 288.637 330.402 288.766C327.162 288.895 326.102 292.925 326.102 292.925L307.815 293.575C307.815 293.575 297.705 293.046 295.516 294.476C295.516 294.476 296.689 279.014 285.403 268.879L299.797 263.682C299.797 263.682 305.246 261.332 306.931 258.876C307.991 257.371 309.495 256.236 311.231 255.63C311.231 255.63 315.25 252.771 315.379 251.212C315.508 249.654 320.293 247.742 320.293 247.742L317.584 224.577L319.011 186.119C319.011 186.119 323.55 153.896 333.147 155.717C342.744 157.538 349.855 199.76 349.855 199.76Z" fill="#E8F5FF"/>
<path opacity="0.1" d="M332.983 238.61C332.983 238.61 346.34 235.085 349.843 239.393C353.346 243.701 332.983 238.61 332.983 238.61Z" fill="#04939C"/>
<path opacity="0.1" d="M329.871 244.519C334.409 247.703 348.416 247.832 348.416 247.832L329.871 244.519Z" fill="#04939C"/>
<path opacity="0.1" d="M336.743 260.435C337.134 260.564 346.372 270.441 350.25 267.453C354.128 264.465 336.743 260.435 336.743 260.435Z" fill="#04939C"/>
<path opacity="0.1" d="M282.475 110.409C282.475 110.409 294.465 107.002 297.189 114.016C299.914 121.03 306.009 149.357 306.009 149.357C306.009 149.357 290.184 152.345 286.036 149.357C283.603 147.583 280.592 146.794 277.604 147.148L268.656 153.253L266.013 152.47C266.013 152.47 280.329 131.15 283.44 123.904C286.552 116.659 287.604 113.42 282.475 110.409Z" fill="#04939C"/>
<path d="M281.955 108.842C281.955 108.842 293.953 105.435 296.689 112.449C299.425 119.463 305.508 147.79 305.508 147.79C305.508 147.79 289.687 150.778 285.536 147.79C283.104 146.017 280.094 145.228 277.107 145.581L268.151 151.687L265.509 150.904C265.509 150.904 279.824 129.583 282.936 122.338C286.048 115.093 287.084 111.862 281.955 108.842Z" fill="#E8F5FF"/>
<path opacity="0.1" d="M201.475 221.848C201.475 221.848 210.423 224.056 212.112 229.124C213.801 234.192 205.498 234.321 205.498 234.321C205.498 234.321 200.439 225.357 201.475 221.848Z" fill="#04939C"/>
<path opacity="0.1" d="M234.805 259.264C234.805 259.264 212.89 304.22 217.949 308.508C223.007 312.796 234.805 259.264 234.805 259.264Z" fill="#04939C"/>
<path opacity="0.1" d="M265.024 226.136C265.024 226.136 282.534 269.803 279.031 276.547C275.528 283.291 286.552 276.547 286.552 276.547L265.024 226.136Z" fill="#04939C"/>
<path d="M289.406 269.27C289.406 269.27 230.267 272.129 247.518 290.579C264.77 309.029 300.172 291.362 300.172 291.362L289.406 269.27Z" fill="#FFC1C7"/>
<path opacity="0.1" d="M280.849 93.8702C280.854 98.1195 280.021 102.328 278.398 106.254C277.854 106.316 277.311 106.355 276.787 106.379C276.005 104.66 276.423 102.674 276.439 100.783C276.455 98.8909 275.759 96.6665 273.941 96.1574C270.317 95.1352 267.815 101.922 264.242 100.696C261.506 99.7643 262.221 95.6052 260.646 93.2045C259.398 91.305 256.9 90.7685 254.958 89.5779C250.825 87.0363 250.951 82.9711 249.031 79.1253C247.022 75.0954 242.776 76.286 239.09 78.6632C236.291 80.4725 233.875 82.8967 230.88 84.3379C228.289 85.5911 225.376 86.0454 222.503 86.112C220.734 86.1807 218.964 85.9934 217.249 85.5559C219.267 77.9558 223.975 71.3505 230.496 66.9717C237.016 62.5928 244.904 60.7394 252.688 61.7571C260.473 62.7748 267.622 66.5941 272.802 72.5027C277.983 78.4113 280.841 86.0059 280.845 93.8702H280.849Z" fill="#04939C"/>
<path d="M239.102 77.6254C236.299 79.4347 233.887 81.855 230.892 83.304C228.3 84.5533 225.388 85.0076 222.515 85.0742C218.996 85.1525 215.208 84.5337 212.804 81.9881C210.595 79.6383 210.068 76.0236 211.002 72.9414C211.936 69.8593 214.176 67.3019 216.807 65.4495C219.438 63.5971 222.491 62.3165 224.235 59.6651C225.157 58.2631 225.603 56.6104 226.369 55.1183C228.82 50.3443 234.332 47.7595 239.661 47.4384C244.989 47.1172 250.27 48.7073 255.345 50.4304C260.419 52.1536 265.532 54.0491 270.888 54.4055C273.272 54.5543 275.751 54.4055 277.964 55.3102C280.939 56.5203 282.889 59.4145 284.218 62.3596C285.708 65.6806 286.634 69.3071 286.478 72.9336C286.15 80.6762 281.044 88.2738 283.288 95.6913C283.882 97.6691 284.996 99.6977 284.402 101.675C283.534 104.562 279.817 105.22 276.81 105.357C276.029 103.638 276.447 101.648 276.462 99.7604C276.478 97.8727 275.782 95.6443 273.968 95.1352C270.341 94.1209 267.839 100.896 264.273 99.6742C261.556 98.7382 262.26 94.583 260.681 92.1823C259.434 90.279 256.932 89.7464 254.993 88.5558C250.861 86.0141 250.986 81.949 249.066 78.1031C247.041 74.0537 242.792 75.2442 239.102 77.6254Z" fill="#99607E"/>
<path d="M181.757 226.653L178.774 227.695C178.774 227.695 179.947 245.365 176.037 250.433C172.128 255.501 188.875 268.099 188.875 268.099C188.875 268.099 211.831 267.97 212.48 266.141C213.128 264.312 211.307 233.401 211.307 233.401C211.307 233.401 198.985 228.592 200.021 220.927C200.021 220.927 196.26 238.985 190.685 238.206C185.111 237.427 178.782 232.762 181.757 226.653Z" fill="#E8F5FF"/>
<path opacity="0.1" d="M191.706 243.673C196.052 243.673 199.575 240.445 199.575 236.463C199.575 232.481 196.052 229.253 191.706 229.253C187.36 229.253 183.836 232.481 183.836 236.463C183.836 240.445 187.36 243.673 191.706 243.673Z" fill="#04939C"/>
<path d="M200.31 227.174C200.31 227.174 198.746 179.363 185.134 190.016C171.522 200.668 171.389 213.408 173.981 217.172C176.573 220.935 184.884 239.777 184.884 239.777C186.184 240.531 187.644 240.967 189.145 241.047C190.645 241.128 192.143 240.851 193.516 240.24C194.889 239.628 196.098 238.7 197.044 237.53C197.99 236.361 198.645 234.983 198.957 233.51L200.31 227.174Z" fill="#FFC1C7"/>
<path opacity="0.1" d="M285.223 106.07C285.16 105.86 285.038 105.672 284.871 105.529C284.199 104.914 282.752 104.699 280.571 104.887L280.661 105.921C283.569 105.67 284.144 106.25 284.218 106.348V106.446L284.308 106.575C284.671 107.063 284.928 107.622 285.062 108.215C285.197 108.809 285.207 109.424 285.09 110.021C284.453 113.213 280.54 115.755 280.501 115.782L280.407 115.837L280.348 115.927C278.659 118.437 269.109 125.522 266.611 127.355L266.392 127.104C265.274 128.075 255.446 136.695 254.915 139.997C254.571 142.068 252.241 142.871 251.396 143.094C250.505 142.417 247.612 140.11 246.107 137.525C244.696 135.093 250.376 130.347 250.876 128.494L250.094 127.692C250.012 127.989 242.718 134.819 244.747 138.309C246.373 141.109 249.344 143.506 250.384 144.297C250.051 147.32 247.983 165.073 244.805 169.279C240.857 174.507 237.538 200.856 237.905 210.056C238.23 218.229 236.099 233.667 228.984 240.297C227.753 241.496 226.267 242.4 224.637 242.942C223.008 243.485 221.278 243.652 219.575 243.43H219.489H219.403C219.301 243.43 208.981 244.488 200.31 237.164C193.215 231.184 189.196 221.425 188.359 208.148H188.187L188.117 204.283C190.041 203.982 191.773 202.946 192.951 201.392C194.128 199.839 194.658 197.888 194.43 195.951C194.202 194.014 193.233 192.241 191.728 191.004C190.222 189.767 188.296 189.164 186.355 189.319C184.415 189.475 182.61 190.379 181.32 191.84C180.03 193.301 179.355 195.206 179.438 197.155C179.521 199.104 180.354 200.945 181.764 202.291C183.173 203.637 185.048 204.383 186.995 204.373H187.081L187.151 208.215L186.807 208.238C187.667 221.946 191.889 232.085 199.317 238.347C204.963 243.034 212.174 245.398 219.493 244.962C220.012 245.019 220.534 245.047 221.056 245.048C224.411 245.065 227.639 243.765 230.048 241.425C237.542 234.435 239.821 218.429 239.465 209.977C239.074 200.23 242.557 174.828 246.052 170.203C249.477 165.664 251.553 147.978 251.916 144.551C253.155 144.203 255.958 143.102 256.435 140.243C256.779 138.176 263.343 131.804 267.381 128.275L267.26 128.134C269.434 126.544 276.193 121.531 279.543 118.312C280.583 117.313 281.615 116.315 282.694 115.363C283.992 114.212 285.641 112.383 286.075 110.221C286.223 109.507 286.224 108.771 286.077 108.057C285.931 107.343 285.64 106.667 285.223 106.07Z" fill="#04939C"/>
<path d="M165.658 178.722C165.661 185.533 163.258 192.126 158.875 197.334C154.492 202.541 148.411 206.027 141.709 207.175C135.006 208.323 128.115 207.059 122.254 203.606C116.393 200.153 111.94 194.734 109.684 188.308C107.427 181.882 107.513 174.864 109.925 168.495C112.337 162.127 116.921 156.818 122.864 153.51C128.808 150.201 135.728 149.105 142.4 150.417C149.072 151.728 155.066 155.362 159.321 160.675C163.422 165.793 165.657 172.159 165.658 178.722Z" fill="#FFCCD0"/>
<path d="M186.788 351.004H83.8335C84.2792 349.99 84.5763 349.375 84.5763 349.375C84.5763 349.375 92.8131 313.274 96.9999 298C97.0012 297.987 97.0012 297.974 96.9999 297.961C97.523 295.887 98.1546 293.841 98.892 291.832C98.9396 291.696 99.0012 291.565 99.0757 291.441C101.148 288.065 103.743 284.427 100.112 279.23C96.48 274.033 97.7661 251.165 97.7661 251.165C97.7661 251.165 102.176 231.674 106.843 221.28C107.552 219.67 108.557 218.208 109.807 216.972C110.213 216.574 110.647 216.205 111.105 215.867C111.453 215.605 111.816 215.363 112.191 215.143L112.266 215.096C114.226 213.982 116.404 213.305 118.649 213.11C120.245 212.943 121.855 212.988 123.438 213.244C131.007 214.356 137.066 216.216 141.882 218.335C154.935 224.08 158.887 231.779 158.966 231.94L158.997 232.007C159.521 233.232 167.183 251.153 169.943 259.515C170.658 261.692 171.049 263.224 170.893 263.643C170.111 265.718 176.858 291.703 176.858 291.703C176.858 291.703 179.986 304.235 183.113 318.925C183.25 319.536 183.379 320.147 183.504 320.766C184.063 323.433 184.618 326.151 185.154 328.865C186.191 334.458 186.727 340.134 186.753 345.823C186.81 347.595 186.822 349.323 186.788 351.004Z" fill="#04939C"/>
<path opacity="0.1" d="M118.036 204.173C118.036 204.173 110.933 201.432 111.019 205.591C111.105 209.75 112.75 211.74 112.23 212.347C111.71 212.954 112.488 216.592 112.488 216.592C112.488 216.592 122.086 216.592 126.495 218.581C130.905 220.571 147.16 224.558 149.235 225.772C151.311 226.986 159.009 232.43 159.009 232.43L159.701 222.122C159.701 222.122 151.745 215.539 138.692 212.163C125.639 208.787 118.036 204.173 118.036 204.173Z" fill="#04939C"/>
<path d="M118.036 203.652C118.036 203.652 110.933 200.911 111.019 205.07C111.105 209.229 112.75 211.219 112.23 211.826C111.71 212.433 112.488 216.071 112.488 216.071C112.488 216.071 122.086 216.071 126.495 218.065C130.905 220.058 147.16 224.041 149.235 225.251C151.311 226.461 159.009 231.909 159.009 231.909L159.708 221.632C159.708 221.632 151.753 215.049 138.7 211.673C125.647 208.297 118.036 203.652 118.036 203.652Z" fill="#04939C"/>
<path opacity="0.1" d="M139.478 228.458C139.478 228.458 153.051 243.18 152.359 247.257C151.667 251.334 139.478 228.458 139.478 228.458Z" fill="#04939C"/>
<path opacity="0.1" d="M117.43 281.638C117.43 281.638 107.481 290.822 104.549 291.343C101.617 291.864 106.797 293.595 110.166 292.212C113.536 290.83 120.721 287.191 120.721 287.191L117.43 281.638Z" fill="#04939C"/>
<path d="M190.83 351.004H167.629C164.384 348.184 161.315 345.572 159.36 344.002C156.233 341.487 153.977 337.786 152.539 334.81C152.214 334.132 151.933 333.498 151.694 332.922C151.267 331.931 150.892 330.918 150.569 329.887L167.75 319.666C168.699 320.475 169.591 321.349 170.42 322.282L170.627 322.521C171.581 323.648 172.421 324.929 172.496 325.979C172.582 327.201 175.975 331.928 179.442 336.467C182.961 341.084 186.565 345.498 186.803 345.795C186.803 345.795 187.398 346.606 188.367 347.851C189.051 348.752 189.896 349.833 190.83 351.004Z" fill="#FFCCD0"/>
<path opacity="0.1" d="M159.321 152.588C158.496 154.452 157.758 156.386 157.648 158.462C157.339 164.454 157.84 177.852 151.217 180.86C147.938 182.34 144.427 179.089 140.831 179.011C138.243 178.956 135.87 180.601 134.29 182.657C132.711 184.713 131.73 187.153 130.584 189.479C129.542 191.591 128.341 193.62 126.992 195.55C126.589 196.14 126.144 196.702 125.663 197.23C121.625 195.523 118.029 192.915 115.149 189.605C112.27 186.295 110.182 182.37 109.046 178.129C107.91 173.889 107.755 169.444 108.593 165.134C109.432 160.825 111.241 156.764 113.883 153.261C116.525 149.757 119.931 146.905 123.84 144.92C127.749 142.935 132.059 141.87 136.442 141.807C140.824 141.743 145.163 142.683 149.128 144.554C153.093 146.425 156.579 149.178 159.321 152.603V152.588Z" fill="#04939C"/>
<path d="M157.128 157.405C156.816 163.397 157.32 176.794 150.694 179.798C147.414 181.279 143.903 178.032 140.307 177.954C137.719 177.895 135.35 179.544 133.767 181.596C132.183 183.648 131.21 186.092 130.061 188.422C129.018 190.533 127.817 192.562 126.468 194.492C125.663 195.636 124.771 196.783 123.532 197.426C121.374 198.553 118.759 197.919 116.445 197.194C113.442 196.247 110.484 195.179 107.571 193.991C107.637 193.55 107.671 193.105 107.672 192.659C107.586 192.824 107.492 192.977 107.399 193.141L107.215 193.462C106.883 194.05 106.558 194.637 106.261 195.24C106.148 195.471 106.038 195.71 105.94 195.949C105.547 196.838 105.3 197.785 105.209 198.753C105.01 201.365 106.296 203.844 107.438 206.194C111.828 215.284 114.541 225.913 111.237 235.449C109.807 239.596 107.328 243.282 105.518 247.288C102.354 254.384 101.423 262.277 102.848 269.917C103.751 274.663 105.561 279.363 105.116 284.176C104.334 292.459 97.2032 298.623 90.061 302.861C86.2025 305.14 81.4801 307.169 77.3832 305.367C79.9946 302.312 80.667 298.087 81.2299 294.1C82.7702 283.226 84.3143 272.346 85.8624 261.461C86.4801 257.13 87.0964 252.798 87.7115 248.467C88.8608 240.329 90.0258 232.101 89.3065 223.912C88.7826 217.877 87.3049 211.469 89.9163 206.006C91.2963 203.112 93.7552 200.715 94.5214 197.598C95.1508 195.064 94.5644 192.37 94.9788 189.789C95.2056 188.615 95.5896 187.476 96.1203 186.405C96.7961 184.951 97.6783 183.603 98.7395 182.403C97.6918 182.097 96.7145 181.678 96.1203 180.801C97.8013 179.704 98.0554 177.233 97.2931 175.377C96.5308 173.52 95.0062 172.107 93.634 170.642C92.2619 169.177 90.9405 167.47 90.7685 165.472C90.4362 161.67 94.2282 158.724 94.8967 154.973C95.573 151.154 92.8991 147.442 93.1141 143.576C93.3643 138.904 97.6488 135.509 101.879 133.539C108.262 130.578 115.313 129.362 122.316 130.014C128.016 130.554 133.532 132.321 139.216 133.006C142.644 133.398 146.12 133.437 149.525 134.04C152.93 134.643 156.343 135.916 158.739 138.418C165.056 145.017 157.488 150.449 157.128 157.405Z" fill="#FFE0D0"/>
<path opacity="0.1" d="M151.843 334.814C149.849 333.948 146.221 334.465 139.994 332.566C133.767 330.666 132.566 322.082 132.566 322.082V322.054C132.492 321.859 131.914 320.582 127.996 316.11C123.669 311.171 114.314 286.228 114.314 286.228C114.314 286.228 106.019 277.303 106.281 274.013C106.542 270.723 104.807 261.97 104.979 252.18C105.151 242.389 123.653 235.895 123.653 235.895C159.278 229.571 150.889 270.715 149.939 273.833C148.989 276.95 153.919 285.37 153.919 285.37C153.223 289.036 156.773 294.711 156.773 294.711C156.773 294.711 157.633 299.731 157.808 301.639C157.818 301.727 157.838 301.814 157.867 301.897C158.438 303.695 163.09 305.324 164.982 306.315C166.972 307.357 173.371 316.45 173.371 316.45C174.751 323.128 153.829 335.691 151.843 334.814Z" fill="#04939C"/>
<path d="M152.879 333.247C150.889 332.378 147.257 332.899 141.034 330.995C134.81 329.092 133.606 320.515 133.606 320.515V320.488C133.536 320.288 132.953 319.015 129.036 314.543C124.709 309.605 115.354 284.658 115.354 284.658C115.354 284.658 107.058 275.736 107.316 272.446C107.574 269.157 105.847 260.404 106.019 250.621C106.191 240.838 124.681 234.349 124.681 234.349C160.306 228.024 151.917 269.169 150.967 272.286C150.017 275.403 154.947 283.823 154.947 283.823C154.251 287.489 157.801 293.164 157.801 293.164C157.801 293.164 158.661 298.185 158.841 300.092C158.847 300.18 158.865 300.267 158.895 300.35C159.466 302.148 164.118 303.777 166.014 304.768C168 305.806 174.403 314.903 174.403 314.903C175.791 321.569 154.869 334.132 152.879 333.247Z" fill="#04939C"/>
<path opacity="0.1" d="M125.385 255.83C125.385 255.83 140.948 272.278 145.01 272.278C149.071 272.278 125.385 255.83 125.385 255.83Z" fill="#04939C"/>
<path d="M152.879 333.247C150.889 332.378 147.257 332.899 141.034 330.995C134.81 329.092 133.606 320.515 133.606 320.515V320.488C137.731 317.747 148.176 310.004 152.293 307.172C155.189 305.187 157.554 302.269 158.938 300.335C159.509 302.132 164.161 303.761 166.057 304.752C168.043 305.79 174.446 314.888 174.446 314.888C175.791 321.569 154.869 334.132 152.879 333.247Z" fill="#05A7B1"/>
<g opacity="0.1">
<path opacity="0.1" d="M96.1438 180.844C96.1633 180.875 96.1907 180.903 96.2141 180.934C96.3314 180.785 96.4526 180.636 96.5777 180.495C96.4445 180.625 96.2992 180.742 96.1438 180.844Z" fill="#04939C"/>
<path opacity="0.1" d="M105.213 198.796C105.377 196.623 106.538 194.708 107.625 192.796C106.914 192.522 106.202 192.244 105.499 191.954C105.566 191.515 105.6 191.071 105.6 190.627C104.502 192.585 103.306 194.512 103.137 196.717C102.938 199.333 104.224 201.808 105.366 204.158C109.76 213.244 112.469 223.872 109.166 233.413C107.731 237.556 105.256 241.245 103.446 245.252C100.283 252.347 99.3534 260.238 100.78 267.876C101.675 272.627 103.489 277.322 103.044 282.135C102.262 290.419 95.1352 296.583 87.9891 300.816C85.0688 302.547 81.656 304.133 78.3918 304.02C78.0897 304.507 77.7526 304.972 77.3832 305.41C81.484 307.223 86.2025 305.183 90.061 302.896C97.211 298.666 104.353 292.518 105.135 284.219C105.581 279.406 103.767 274.71 102.868 269.96C101.441 262.323 102.368 254.431 105.526 247.335C107.324 243.333 109.826 239.64 111.245 235.496C114.549 225.956 111.836 215.327 107.445 206.241C106.308 203.876 105.014 201.412 105.213 198.796Z" fill="#04939C"/>
<path opacity="0.1" d="M158.731 138.465C158.347 138.07 157.934 137.704 157.496 137.369C162.234 143.525 155.393 148.757 155.052 155.384C154.748 161.376 155.248 174.777 148.622 177.777C145.346 179.262 141.831 176.011 138.239 175.933C135.647 175.878 133.278 177.527 131.695 179.579C130.111 181.631 129.138 184.075 127.993 186.401C126.948 188.512 125.745 190.541 124.396 192.471C123.614 193.619 122.699 194.762 121.456 195.409C119.306 196.533 116.691 195.902 114.373 195.174C112.118 194.463 109.885 193.68 107.672 192.824C107.668 193.232 107.634 193.639 107.571 194.042C110.487 195.232 113.446 196.3 116.448 197.245C118.763 197.974 121.378 198.604 123.532 197.48C124.771 196.834 125.67 195.687 126.472 194.539C127.822 192.612 129.023 190.584 130.064 188.473C131.214 186.147 132.183 183.699 133.77 181.647C135.358 179.595 137.723 177.95 140.311 178.005C143.907 178.083 147.422 181.333 150.698 179.849C157.324 176.849 156.819 163.448 157.128 157.456C157.488 150.488 165.056 145.06 158.731 138.465Z" fill="#04939C"/>
</g>
<path opacity="0.1" d="M107.219 193.466C106.886 194.054 106.562 194.641 106.265 195.244C106.151 195.475 106.042 195.714 105.944 195.953C103.896 193.885 98.9076 188.97 96.1242 187.447C96.801 185.994 97.6831 184.646 98.7434 183.444C98.7434 183.444 105.377 186.957 107.219 193.466Z" fill="#04939C"/>
<path opacity="0.1" d="M152.273 184.631C149.146 187.09 146.863 192.898 145.209 199.286C140.247 200.795 134.971 200.931 129.938 199.68C124.906 198.428 120.305 195.836 116.624 192.178C115.862 186.902 115.182 182.81 115.182 182.81C115.182 182.81 160.834 177.875 152.273 184.631Z" fill="#04939C"/>
<path d="M107.402 193.145C105.866 186.178 98.7434 182.406 98.7434 182.406C97.6822 183.607 96.8 184.955 96.1242 186.409C99.0601 188.019 104.471 193.415 106.265 195.244L107.402 193.145Z" fill="#04939C"/>
<path opacity="0.1" d="M212.335 177.542C212.335 177.542 215.048 196.255 213.711 203.876C212.374 211.497 217.253 220.939 217.253 220.939L212.335 177.542Z" fill="#04939C"/>
<path d="M152.273 185.152C149.146 187.607 146.863 193.419 145.209 199.807C142.324 210.949 141.382 223.869 141.382 223.869C141.382 223.869 116.48 218.151 118.294 215.554C119.435 213.921 117.903 201.616 116.624 192.695C115.862 187.423 115.182 183.331 115.182 183.331C115.182 183.331 160.834 178.392 152.273 185.152Z" fill="#FFCCD0"/>
<path opacity="0.1" d="M188.363 351.004H180.154L179.462 336.478L178.739 321.444C178.739 321.444 180.603 321.166 183.574 320.75L184.775 320.59H184.872C185.521 323.641 186.162 326.774 186.78 329.903C187.808 335.458 188.343 341.093 188.379 346.743C188.379 347.135 188.379 347.526 188.379 347.894C188.402 348.94 188.379 349.986 188.363 351.004Z" fill="#04939C"/>
</g>
<defs>
<linearGradient id="paint0_linear" x1="285.731" y1="81.8471" x2="285.731" y2="74.649" gradientUnits="userSpaceOnUse">
<stop stop-color="#808080" stop-opacity="0.25"/>
<stop offset="0.54" stop-color="#808080" stop-opacity="0.12"/>
<stop offset="1" stop-color="#808080" stop-opacity="0.1"/>
</linearGradient>
<linearGradient id="paint1_linear" x1="179347" y1="257936" x2="179347" y2="18025.2" gradientUnits="userSpaceOnUse">
<stop stop-color="#808080" stop-opacity="0.25"/>
<stop offset="0.54" stop-color="#808080" stop-opacity="0.12"/>
<stop offset="1" stop-color="#808080" stop-opacity="0.1"/>
</linearGradient>
<clipPath id="clip0">
<rect width="424.597" height="306.518" fill="white" transform="translate(0.343384 44.4816)"/>
</clipPath>
</defs>
</svg>
